<?xml version="1.0" encoding="UTF-8" standalone="no"?>
<!-- Uploaded to: SVG Repo, www.svgrepo.com, Generator: SVG Repo Mixer Tools -->

<svg
   width="800"
   height="800"
   viewBox="0 0 256 256"
   version="1.1"
   id="svg1"
   xmlns="http://www.w3.org/2000/svg"
   xmlns:svg="http://www.w3.org/2000/svg">
  <defs
     id="defs1" />
  <path
     d="M 23.733292,24.744063 C 23.733292,9.3777311 44.209151,0.46752307 58.895891,6.4721591 75.720515,17.510812 218.79353,98.088091 231.7341,108.84515 c 12.94057,10.75707 16.65159,27.83654 -0.87938,40.53956 -17.52939,12.70145 -156.859928,94.70714 -171.958829,101.8287 -15.102046,7.11997 -34.533345,-2.56735 -35.162599,-20.58913 -0.629252,-18.02177 0,-190.515458 0,-205.880217 z m 21.138147,13.340142 c 0,3.923385 -0.119558,177.530845 -0.339797,181.101855 -0.361819,5.85675 4.71939,11.74184 11.798475,8.25106 7.079083,-3.49235 153.414773,-90.77588 159.225923,-93.03647 5.81271,-2.26215 5.42729,-8.02295 0,-11.62228 C 210.13032,119.17904 61.126589,33.927995 56.76902,30.183946 52.411449,26.438324 44.871439,32.06069 44.871439,38.085776 Z"
     stroke="#979797"
     fill-rule="evenodd"
     id="path1"
     style="fill:#eed49f;fill-opacity:1;stroke:#eed49f;stroke-width:1.57313;stroke-opacity:1" />
</svg>
